<svg width="57" height="56" viewBox="0 0 57 56" fill="none" xmlns="http://www.w3.org/2000/svg">
<g filter="url(#filter0_d_1_2157)">
<circle cx="26.3335" cy="26" r="24" fill="#FDEAB6"/>
</g>
<path fill-rule="evenodd" clip-rule="evenodd" d="M34.9014 17.8025C32.9839 14.9975 29.1351 15.4679 27.7878 18.6719C27.0806 20.3535 24.9716 20.3535 24.2644 18.6719C22.9171 15.4679 19.0683 14.9975 17.1508 17.8025L16.7585 18.3764C15.073 20.842 15.3164 24.3581 17.3204 26.4948L26.0261 35.7766L34.7318 26.4948C36.7358 24.3581 36.9792 20.842 35.2937 18.3764L34.9014 17.8025ZM26.0261 16.3891C28.5332 12.2129 34.0525 11.8645 36.9053 16.0378L37.2976 16.6117C39.7851 20.2505 39.426 25.4396 36.4684 28.5929L27.6512 37.9937C27.6428 38.0026 27.6343 38.0116 27.6258 38.0208C27.497 38.1582 27.3417 38.3239 27.1926 38.4542C27.0166 38.6081 26.7523 38.8025 26.3924 38.8827C26.1505 38.9365 25.9017 38.9365 25.6598 38.8827C25.3 38.8025 25.0356 38.6081 24.8596 38.4542C24.7105 38.3239 24.5553 38.1582 24.4265 38.0208C24.4179 38.0117 24.4094 38.0026 24.4011 37.9937L15.5838 28.5929C12.6263 25.4396 12.2671 20.2505 14.7546 16.6117L15.1469 16.0378C17.9998 11.8645 23.519 12.2129 26.0261 16.3891Z" fill="#145CA8"/>
<defs>
<filter id="filter0_d_1_2157" x="0.333496" y="0" width="56" height="56" filterUnits="userSpaceOnUse" color-interpolation-filters="sRGB">
<feFlood flood-opacity="0" result="BackgroundImageFix"/>
<feColorMatrix in="SourceAlpha" type="matrix" values="0 0 0 0 0 0 0 0 0 0 0 0 0 0 0 0 0 0 127 0" result="hardAlpha"/>
<feOffset dx="2" dy="2"/>
<feGaussianBlur stdDeviation="2"/>
<feComposite in2="hardAlpha" operator="out"/>
<feColorMatrix type="matrix" values="0 0 0 0 0 0 0 0 0 0 0 0 0 0 0 0 0 0 0.15 0"/>
<feBlend mode="normal" in2="BackgroundImageFix" result="effect1_dropShadow_1_2157"/>
<feBlend mode="normal" in="SourceGraphic" in2="effect1_dropShadow_1_2157" result="shape"/>
</filter>
</defs>
</svg>
