<svg width="57" height="56" viewBox="0 0 57 56" fill="none" xmlns="http://www.w3.org/2000/svg">
<g filter="url(#filter0_d_1_2167)">
<circle cx="26.667" cy="26" r="24" fill="#FF4365"/>
</g>
<path fill-rule="evenodd" clip-rule="evenodd" d="M37.3982 15.2686C38.023 15.8935 38.023 16.9065 37.3982 17.5314L18.1982 36.7314C17.5733 37.3562 16.5603 37.3562 15.9354 36.7314C15.3106 36.1065 15.3106 35.0935 15.9354 34.4686L35.1354 15.2686C35.7603 14.6438 36.7733 14.6438 37.3982 15.2686Z" fill="#FBFDFF"/>
<path fill-rule="evenodd" clip-rule="evenodd" d="M15.9354 15.2686C15.3106 15.8935 15.3106 16.9065 15.9354 17.5314L35.1354 36.7314C35.7603 37.3562 36.7733 37.3562 37.3982 36.7314C38.023 36.1065 38.023 35.0935 37.3982 34.4686L18.1982 15.2686C17.5733 14.6438 16.5603 14.6438 15.9354 15.2686Z" fill="#FBFDFF"/>
<defs>
<filter id="filter0_d_1_2167" x="0.666992" y="0" width="56" height="56" filterUnits="userSpaceOnUse" color-interpolation-filters="sRGB">
<feFlood flood-opacity="0" result="BackgroundImageFix"/>
<feColorMatrix in="SourceAlpha" type="matrix" values="0 0 0 0 0 0 0 0 0 0 0 0 0 0 0 0 0 0 127 0" result="hardAlpha"/>
<feOffset dx="2" dy="2"/>
<feGaussianBlur stdDeviation="2"/>
<feComposite in2="hardAlpha" operator="out"/>
<feColorMatrix type="matrix" values="0 0 0 0 0 0 0 0 0 0 0 0 0 0 0 0 0 0 0.15 0"/>
<feBlend mode="normal" in2="BackgroundImageFix" result="effect1_dropShadow_1_2167"/>
<feBlend mode="normal" in="SourceGraphic" in2="effect1_dropShadow_1_2167" result="shape"/>
</filter>
</defs>
</svg>
